<svg width="212" height="39" viewBox="0 0 212 39" fill="none" xmlns="http://www.w3.org/2000/svg">
<path d="M0.652 19.8C0.652 13.768 2.33333 9.10533 5.696 5.812C9.09333 2.484 13.964 0.819998 20.308 0.819998C24.3293 0.819998 27.692 1.40933 30.396 2.588V12.468H28.004L25.56 4.72C23.8267 4.44267 22.3707 4.304 21.192 4.304C16.7547 4.304 13.3053 5.62133 10.844 8.256C8.41733 10.8907 7.204 14.7387 7.204 19.8C7.204 24.896 8.31333 28.7613 10.532 31.396C12.7507 33.996 15.9573 35.296 20.152 35.296C21.6773 35.296 23.0467 35.1747 24.26 34.932V24.064L18.332 22.972V21.152H34.504V22.972L30.656 24.064V36.232C27.4667 37.9307 23.74 38.78 19.476 38.78C13.3747 38.78 8.712 37.1333 5.488 33.84C2.264 30.5467 0.652 25.8667 0.652 19.8ZM38.0185 38V35.608L42.8025 34.464V5.136L38.0185 3.992V1.6H53.9825V3.992L49.1985 5.136V34.516H61.4185L64.2265 26.768H66.6185L66.0985 38H38.0185ZM87.947 0.819998C90.755 0.819998 93.2337 1.288 95.383 2.224C97.5323 3.16 99.3523 4.46 100.843 6.124C102.334 7.788 103.46 9.78133 104.223 12.104C104.986 14.4267 105.367 16.9747 105.367 19.748C105.367 22.556 104.986 25.1213 104.223 27.444C103.495 29.7667 102.386 31.7773 100.895 33.476C99.439 35.14 97.619 36.44 95.435 37.376C93.2857 38.312 90.7897 38.78 87.947 38.78C84.931 38.78 82.3137 38.2773 80.095 37.272C77.911 36.2667 76.1083 34.9147 74.687 33.216C73.2657 31.4827 72.2083 29.4547 71.515 27.132C70.8563 24.8093 70.527 22.3133 70.527 19.644C70.527 17.044 70.8737 14.6173 71.567 12.364C72.2603 10.076 73.3177 8.08267 74.739 6.384C76.1603 4.65066 77.963 3.29866 80.147 2.328C82.3657 1.32266 84.9657 0.819998 87.947 0.819998ZM87.947 3.888C84.411 3.888 81.7243 5.37867 79.887 8.36C78.0843 11.3067 77.183 15.12 77.183 19.8C77.183 24.7573 78.1363 28.6573 80.043 31.5C81.9843 34.308 84.619 35.712 87.947 35.712C91.275 35.712 93.8923 34.308 95.799 31.5C97.7403 28.6573 98.711 24.7573 98.711 19.8C98.711 15.12 97.7923 11.3067 95.955 8.36C94.1523 5.37867 91.483 3.888 87.947 3.888ZM109.62 38V35.608L114.404 34.464V5.136L109.62 3.992V1.6H124.544C133.003 1.6 137.232 4.54666 137.232 10.44C137.232 12.3467 136.66 14.0107 135.516 15.432C134.407 16.8533 132.881 17.876 130.94 18.5V18.604C133.783 19.124 135.967 20.1813 137.492 21.776C139.052 23.3707 139.832 25.364 139.832 27.756C139.832 30.876 138.671 33.372 136.348 35.244C134.025 37.0813 130.888 38 126.936 38H109.62ZM120.8 34.828H125.324C127.855 34.828 129.813 34.2213 131.2 33.008C132.587 31.7947 133.28 30.044 133.28 27.756C133.28 25.6413 132.552 23.9427 131.096 22.66C129.675 21.3773 127.664 20.736 125.064 20.736H120.8V34.828ZM120.8 17.46H123.764C125.775 17.46 127.421 16.888 128.704 15.744C130.021 14.5653 130.68 12.9533 130.68 10.908C130.68 8.828 130.021 7.28533 128.704 6.28C127.421 5.27466 125.671 4.772 123.452 4.772H120.8V17.46ZM143.007 3.992V1.6H158.971V3.992L154.187 5.136V24.376C154.187 27.8427 155.037 30.4427 156.735 32.176C158.469 33.9093 160.791 34.776 163.703 34.776C166.581 34.776 168.903 33.9093 170.671 32.176C172.439 30.408 173.323 27.808 173.323 24.376V5.136L168.487 3.992V1.6H181.799V3.992L177.015 5.136V24.376C177.015 26.664 176.651 28.7093 175.923 30.512C175.23 32.3147 174.242 33.8227 172.959 35.036C171.677 36.2493 170.134 37.1853 168.331 37.844C166.563 38.468 164.622 38.78 162.507 38.78C160.358 38.78 158.382 38.468 156.579 37.844C154.777 37.22 153.217 36.3013 151.899 35.088C150.617 33.84 149.611 32.332 148.883 30.564C148.155 28.7613 147.791 26.6987 147.791 24.376V5.136L143.007 3.992ZM186.117 9.92C186.117 7.04267 187.261 4.80667 189.549 3.212C191.837 1.61733 194.801 0.819998 198.441 0.819998C202.324 0.819998 205.877 1.21866 209.101 2.016L208.841 12H206.501L203.901 4.512C202.445 4.23467 200.972 4.096 199.481 4.096C197.089 4.096 195.2 4.564 193.813 5.5C192.461 6.436 191.785 7.736 191.785 9.4C191.785 10.8213 192.392 12.0173 193.605 12.988C194.853 13.924 197.003 15.0333 200.053 16.316C201.683 16.9747 203.017 17.5987 204.057 18.188C205.132 18.7427 206.276 19.488 207.489 20.424C208.703 21.36 209.604 22.4867 210.193 23.804C210.817 25.1213 211.129 26.5947 211.129 28.224C211.129 31.6907 209.847 34.36 207.281 36.232C204.889 37.9653 201.891 38.8147 198.285 38.78C197.315 38.78 195.703 38.6933 193.449 38.52C191.231 38.3467 188.821 37.8787 186.221 37.116V26.872H188.613L191.265 34.672C192.721 35.1227 194.42 35.348 196.361 35.348C199.065 35.348 201.249 34.88 202.913 33.944C204.577 32.9733 205.409 31.4653 205.409 29.42C205.409 27.86 204.664 26.508 203.173 25.364C201.683 24.22 199.499 23.024 196.621 21.776C192.669 20.0773 189.931 18.4307 188.405 16.836C186.88 15.2413 186.117 12.936 186.117 9.92Z" fill="#484848"/>
</svg>
