<svg width="24" height="24" viewBox="0 0 24 24" fill="none" xmlns="http://www.w3.org/2000/svg">
<path d="M11.4847 4.86439L12.0002 5.39239L12.5147 4.86439C13.0763 4.28935 14.3618 3.27079 15.9026 2.83975C17.3906 2.42503 19.1147 2.54983 20.7583 4.23175C22.4056 5.91751 22.5343 7.69831 22.1234 9.23815C21.701 10.8241 20.7007 12.1431 20.14 12.7172L15.3487 17.6228L12.6635 20.3703L12.0002 21.05L11.3368 20.3703L8.65169 17.6218L3.86129 12.7172C3.29969 12.1431 2.30033 10.8241 1.87697 9.23815C1.46705 7.69831 1.59473 5.91655 3.24113 4.23175C4.88465 2.54983 6.60977 2.42503 8.09681 2.83975C9.63761 3.26983 10.9231 4.28839 11.4847 4.86439Z" stroke="black" stroke-width="1.2"/>
</svg>
