<svg width="24" height="24" viewBox="0 0 24 24" fill="none" xmlns="http://www.w3.org/2000/svg">
<g clip-path="url(#clip0_1_1194)">
<path fill-rule="evenodd" clip-rule="evenodd" d="M12.4809 22.56C15.0461 22.56 17.3865 21.6019 19.1654 20.0246C18.4765 18.8658 17.4981 17.906 16.3261 17.2397C15.1542 16.5734 13.8291 16.2233 12.4809 16.224C11.1327 16.2234 9.80754 16.5736 8.63559 17.2401C7.46364 17.9066 6.48522 18.8666 5.79646 20.0256C7.63828 21.6617 10.0173 22.5638 12.4809 22.56ZM12.4809 14.784C14.0136 14.7831 15.5223 15.1648 16.8701 15.8945C18.2179 16.6243 19.3623 17.6789 20.1993 18.9628C21.7278 17.1488 22.5644 14.8521 22.5609 12.48C22.5609 6.91292 18.048 2.39996 12.4809 2.39996C6.9139 2.39996 2.40094 6.91292 2.40094 12.48C2.40094 14.9491 3.28894 17.2108 4.76254 18.9628C5.59966 17.679 6.74401 16.6244 8.09182 15.8946C9.43962 15.1649 10.9483 14.7831 12.4809 14.784ZM24.0009 12.48C24.0009 15.504 22.8355 18.2563 20.9289 20.3116C19.8517 21.4764 18.545 22.4054 17.0911 23.0402C15.6371 23.675 14.0674 24.0018 12.4809 24C10.4708 24.0023 8.49517 23.4769 6.75166 22.4764C4.99143 21.4679 3.52887 20.0123 2.512 18.2569C1.49514 16.5015 0.960062 14.5086 0.960939 12.48C0.960939 6.11804 6.11902 0.959961 12.4809 0.959961C18.8429 0.959961 24.0009 6.11804 24.0009 12.48ZM14.6409 9.71708C14.6409 10.2899 14.4134 10.8394 14.0083 11.2444C13.6032 11.6495 13.0538 11.8771 12.4809 11.8771C11.9081 11.8771 11.3587 11.6495 10.9536 11.2444C10.5485 10.8394 10.3209 10.2899 10.3209 9.71708C10.3209 9.14421 10.5485 8.59481 10.9536 8.18973C11.3587 7.78465 11.9081 7.55708 12.4809 7.55708C13.0538 7.55708 13.6032 7.78465 14.0083 8.18973C14.4134 8.59481 14.6409 9.14421 14.6409 9.71708ZM16.0809 9.71708C16.0809 10.6719 15.7017 11.5875 15.0265 12.2627C14.3514 12.9378 13.4357 13.3171 12.4809 13.3171C11.5262 13.3171 10.6105 12.9378 9.93535 12.2627C9.26022 11.5875 8.88094 10.6719 8.88094 9.71708C8.88094 8.7623 9.26022 7.84663 9.93535 7.1715C10.6105 6.49637 11.5262 6.11708 12.4809 6.11708C13.4357 6.11708 14.3514 6.49637 15.0265 7.1715C15.7017 7.84663 16.0809 8.7623 16.0809 9.71708Z" fill="black"/>
</g>
<defs>
<clipPath id="clip0_1_1194">
<rect width="24" height="24" fill="white"/>
</clipPath>
</defs>
</svg>
